<?xml version="1.0" encoding="utf-8"?>
<!-- Generator: Adobe Illustrator 25.4.4, SVG Export Plug-In . SVG Version: 6.00 Build 0)  -->
<svg version="1.1" id="Layer_1" xmlns="http://www.w3.org/2000/svg" xmlns:xlink="http://www.w3.org/1999/xlink" x="0px" y="0px"
	 viewBox="0 0 29.2 29.2" style="enable-background:new 0 0 29.2 29.2;" xml:space="preserve">
<style type="text/css">
	.st0{fill:#999999;}
</style>
<path class="st0" d="M14.6,0C6.5,0,0,6.5,0,14.6c0,8.1,6.5,14.6,14.6,14.6s14.6-6.5,14.6-14.6C29.2,6.5,22.7,0,14.6,0
	C14.6,0,14.6,0,14.6,0z M22.1,11.3L15,19.9c-0.2,0.3-0.6,0.5-1,0.5h-0.1c-0.4,0-0.7-0.1-1-0.4l-5.6-4.9c-0.6-0.6-0.7-1.5-0.1-2.1
	c0.6-0.6,1.5-0.7,2.1-0.1l4.5,3.9l6.2-7.4c0.6-0.6,1.5-0.6,2.1-0.1C22.6,9.8,22.6,10.6,22.1,11.3L22.1,11.3z"/>
</svg>
