<svg width="20" height="15" viewBox="0 0 20 15" fill="none" xmlns="http://www.w3.org/2000/svg">
<path d="M16.9309 1.33602C15.6561 0.769728 14.2892 0.35251 12.8599 0.113551C12.8339 0.108939 12.8079 0.120465 12.7945 0.143516C12.6187 0.446246 12.4239 0.841182 12.2876 1.1516C10.7503 0.928783 9.22099 0.928783 7.71527 1.1516C7.57888 0.834282 7.37707 0.446246 7.20048 0.143516C7.18707 0.121234 7.16107 0.109708 7.13505 0.113551C5.70659 0.351746 4.33964 0.768964 3.06411 1.33602C3.05307 1.34063 3.04361 1.34832 3.03733 1.3583C0.444493 5.10868 -0.265792 8.76689 0.0826501 12.3797C0.0842268 12.3974 0.0944749 12.4143 0.108665 12.4251C1.81934 13.6414 3.47642 14.3798 5.10273 14.8692C5.12876 14.8769 5.15634 14.8677 5.1729 14.8469C5.55761 14.3383 5.90054 13.802 6.19457 13.238C6.21192 13.205 6.19535 13.1658 6.15989 13.1527C5.61595 12.9529 5.098 12.7094 4.59978 12.4328C4.56037 12.4105 4.55721 12.3559 4.59347 12.3298C4.69831 12.2537 4.80319 12.1746 4.9033 12.0947C4.92141 12.0801 4.94665 12.077 4.96795 12.0862C8.24107 13.533 11.7846 13.533 15.0191 12.0862C15.0404 12.0762 15.0657 12.0793 15.0846 12.0939C15.1847 12.1738 15.2896 12.2537 15.3952 12.3298C15.4314 12.3559 15.4291 12.4105 15.3897 12.4328C14.8914 12.7147 14.3735 12.9529 13.8288 13.1519C13.7933 13.165 13.7775 13.205 13.7949 13.238C14.0952 13.8012 14.4381 14.3375 14.8158 14.8462C14.8315 14.8677 14.8599 14.8769 14.8859 14.8692C16.5201 14.3798 18.1772 13.6414 19.8879 12.4251C19.9029 12.4143 19.9123 12.3982 19.9139 12.3805C20.3309 8.20365 19.2154 4.57545 16.9569 1.35906C16.9513 1.34832 16.9419 1.34063 16.9309 1.33602ZM6.68336 10.1799C5.69792 10.1799 4.88595 9.30397 4.88595 8.22825C4.88595 7.15253 5.68217 6.27661 6.68336 6.27661C7.6924 6.27661 8.49651 7.16022 8.48074 8.22825C8.48074 9.30397 7.68451 10.1799 6.68336 10.1799ZM13.329 10.1799C12.3436 10.1799 11.5316 9.30397 11.5316 8.22825C11.5316 7.15253 12.3278 6.27661 13.329 6.27661C14.338 6.27661 15.1421 7.16022 15.1264 8.22825C15.1264 9.30397 14.338 10.1799 13.329 10.1799Z" fill="#DBDFE6"/>
</svg>
