<svg width="20" height="21" viewBox="0 0 20 21" fill="none" xmlns="http://www.w3.org/2000/svg">
<g clip-path="url(#clip0_112_1502)">
<path d="M17.9525 5.98831C17.9647 6.16463 17.9647 6.34094 17.9647 6.51888C17.9647 11.9408 13.8371 18.1939 6.28966 18.1939V18.1906C4.06013 18.1939 1.87691 17.5552 0 16.3511C0.324193 16.3901 0.650011 16.4096 0.976641 16.4104C2.8243 16.412 4.61914 15.7921 6.07272 14.6505C4.31688 14.6172 2.77717 13.4724 2.23929 11.801C2.85436 11.9197 3.48812 11.8953 4.09182 11.7303C2.17754 11.3436 0.800325 9.66168 0.800325 7.7084C0.800325 7.69053 0.800325 7.67346 0.800325 7.6564C1.37071 7.97409 2.00934 8.15041 2.66261 8.16991C0.859639 6.96495 0.30388 4.56641 1.39265 2.69113C3.47593 5.25461 6.54967 6.81301 9.84928 6.97795C9.51859 5.5528 9.97035 4.05941 11.0364 3.05758C12.689 1.50405 15.2882 1.58368 16.8418 3.23552C17.7607 3.05433 18.6415 2.71713 19.4475 2.23938C19.1412 3.1892 18.5001 3.99603 17.6437 4.50873C18.457 4.41285 19.2517 4.1951 20 3.86278C19.4491 4.68829 18.7552 5.40737 17.9525 5.98831Z" fill="#DBDFE6"/>
</g>
<defs>
<clipPath id="clip0_112_1502">
<rect width="20" height="20" fill="white" transform="translate(0 0.0375977)"/>
</clipPath>
</defs>
</svg>
