<?xml version="1.0" encoding="utf-8"?>
<!-- Generator: Adobe Illustrator 24.2.3, SVG Export Plug-In . SVG Version: 6.00 Build 0)  -->
<svg version="1.1" id="레이어_1" xmlns="http://www.w3.org/2000/svg" xmlns:xlink="http://www.w3.org/1999/xlink" x="0px"
	 y="0px" viewBox="0 0 194 168" style="enable-background:new 0 0 194 168;" xml:space="preserve">
<style type="text/css">
	.st0{fill-rule:evenodd;clip-rule:evenodd;fill:#A1A1A1;}
</style>
<path id="icon_on_copy" class="st0" d="M97,138c-38.2,0-73.8-19.1-94.9-50.9L0,84l2.1-3.1c34.8-52.4,105.6-66.7,158-31.9
	c12.6,8.4,23.5,19.2,31.9,31.9L194,84l-2.1,3.1C170.8,118.9,135.2,138,97,138z M97.6,43.1c22.9,0,41.4,18.6,41.4,41.4
	S120.5,126,97.6,126s-41.4-18.6-41.4-41.4c0,0,0,0,0,0C56.2,61.7,74.7,43.1,97.6,43.1C97.6,43.1,97.6,43.1,97.6,43.1L97.6,43.1z
	 M97.8,59.7c13.8,0,25,11.3,25,25.1c0,13.8-11.3,25-25.1,25c-13.8,0-25-11.2-25-25C72.7,70.9,83.9,59.7,97.8,59.7L97.8,59.7z"/>
</svg>
