<?xml version="1.0" encoding="utf-8"?>
<!-- Generator: Adobe Illustrator 24.2.3, SVG Export Plug-In . SVG Version: 6.00 Build 0)  -->
<svg version="1.1" id="ICON" xmlns="http://www.w3.org/2000/svg" xmlns:xlink="http://www.w3.org/1999/xlink" x="0px" y="0px"
	 viewBox="0 0 22.7 22.7" style="enable-background:new 0 0 22.7 22.7;" xml:space="preserve">
<style type="text/css">
	.st0{opacity:0.7;fill-rule:evenodd;clip-rule:evenodd;fill:#A1A1A1;enable-background:new    ;}
	.st1{fill:#FFFFFF;fill-opacity:0;stroke:#A1A1A1;stroke-linejoin:round;}
</style>
<path class="st0" d="M11.3,1.3c-5.5,0-10,4.5-10,10s4.5,10,10,10s10-4.5,10-10C21.3,5.8,16.9,1.3,11.3,1.3z M19.5,15.6
	c-1.4-0.9-3-1.5-4.6-1.7c0.1-0.8,0.1-1.6,0.1-2.5c0-0.9,0-1.7-0.1-2.6C16.6,8.6,18.1,8,19.5,7C20.9,9.7,20.9,12.9,19.5,15.6
	L19.5,15.6z M11.3,20.1c-1.1,0-2.2-2.2-2.7-5.5c0.9-0.1,1.8-0.2,2.7-0.2c0.9,0,1.8,0,2.7,0.2C13.6,17.9,12.4,20.1,11.3,20.1z
	 M11.3,13.6c-0.9,0-1.9,0-2.8,0.2c-0.2-1.6-0.2-3.3,0-4.9C9.5,9,10.4,9,11.3,9c0.9,0,1.9-0.1,2.8-0.2c0.1,0.8,0.1,1.6,0.1,2.5
	c0,0.8,0,1.6-0.1,2.4C13.2,13.7,12.3,13.6,11.3,13.6z M11.3,2.6c1.1,0,2.2,2.1,2.7,5.5c-0.9,0.1-1.8,0.2-2.7,0.2
	c-0.9,0-1.8-0.1-2.7-0.2C9.1,4.8,10.3,2.6,11.3,2.6z M19.1,6.3c-1.2,0.9-2.7,1.5-4.2,1.7c-0.4-2.9-1.3-5-2.5-5.8
	C15.1,2.5,17.5,4,19.1,6.3L19.1,6.3z M10.3,2.2C9.2,3,8.3,5.1,7.9,8c-1.5-0.2-3-0.8-4.2-1.7C5.1,4,7.6,2.5,10.3,2.2z M3.2,7
	c1.3,1,2.9,1.6,4.5,1.8c-0.1,0.9-0.1,1.7-0.1,2.6c0,0.9,0,1.7,0.1,2.5c-1.7,0.2-3.2,0.8-4.6,1.7C1.8,12.9,1.8,9.7,3.2,7L3.2,7z
	 M3.6,16.3c1.3-0.9,2.8-1.4,4.3-1.6c0.4,2.9,1.3,5.1,2.5,5.9C7.6,20.2,5.1,18.6,3.6,16.3L3.6,16.3z M12.3,20.5
	c1.2-0.8,2.1-3,2.5-5.9c1.5,0.2,3,0.7,4.3,1.6C17.6,18.6,15.1,20.2,12.3,20.5L12.3,20.5z"/>
<circle class="st1" cx="11.3" cy="11.3" r="10"/>
</svg>
