<?xml version="1.0" encoding="utf-8"?>
<!-- Generator: Adobe Illustrator 24.2.3, SVG Export Plug-In . SVG Version: 6.00 Build 0)  -->
<svg version="1.1" id="레이어_1" xmlns="http://www.w3.org/2000/svg" xmlns:xlink="http://www.w3.org/1999/xlink" x="0px"
	 y="0px" viewBox="0 0 194 168" style="enable-background:new 0 0 194 168;" xml:space="preserve">
<style type="text/css">
	.st0{fill-rule:evenodd;clip-rule:evenodd;fill:#A1A1A1;}
</style>
<path id="icon_off" class="st0" d="M191.9,87.5c-10,15-23.5,27.5-39.2,36.3l28.9,28.9L166.3,168l-34.9-34.9
	C83,148.4,30.2,129.8,2.1,87.5L0,84.4l2.1-3.1c10.3-15.4,24.2-28.2,40.5-37l-29-29L28.9,0l35.3,35.3c48.1-14.5,100,4.2,127.8,46
	l2.1,3.1L191.9,87.5z M56.2,84.9c0,22.9,18.6,41.4,41.4,41.4c7.5,0,14.8-2,21.2-5.9l-12.1-12.1c-12.9,5-27.4-1.3-32.4-14.2
	c-2.3-5.9-2.3-12.4,0-18.2L62,63.7C58.2,70.1,56.1,77.5,56.2,84.9z M97.6,43.5c-7,0-13.9,1.8-20.1,5.2l12.6,12.6
	c13.2-4.3,27.3,3,31.5,16.1c1.6,5,1.6,10.4,0,15.4l12.2,12.2c11.1-20,3.8-45.2-16.2-56.3C111.5,45.3,104.6,43.5,97.6,43.5L97.6,43.5
	z"/>
</svg>
